<?xml version="1.0" encoding="utf-8"?>
<!-- Generator: Adobe Illustrator 27.5.0, SVG Export Plug-In . SVG Version: 6.00 Build 0)  -->
<svg version="1.1" xmlns="http://www.w3.org/2000/svg" xmlns:xlink="http://www.w3.org/1999/xlink" x="0px" y="0px"
	 viewBox="0 0 400 200" style="enable-background:new 0 0 400 200;" xml:space="preserve">
<g id="BACKGROUND">
</g>
<g id="ELEMENTS">
	<g>
		<path style="fill:#4C4C4C;" d="M169.603,22.517c0.917,0,1.389,0.549,1.389,1.509v0.188H170.1v-0.249
			c0-0.429-0.171-0.592-0.472-0.592c-0.3,0-0.472,0.163-0.472,0.592c0,1.235,1.844,1.466,1.844,3.182c0,0.96-0.48,1.509-1.406,1.509
			c-0.926,0-1.406-0.549-1.406-1.509v-0.369h0.892v0.429c0,0.429,0.188,0.583,0.489,0.583c0.3,0,0.488-0.154,0.488-0.583
			c0-1.235-1.844-1.466-1.844-3.181C168.213,23.065,168.685,22.517,169.603,22.517z"/>
		<path style="fill:#4C4C4C;" d="M174.039,24.026c0-0.961,0.506-1.509,1.433-1.509c0.926,0,1.432,0.549,1.432,1.509v3.122
			c0,0.96-0.506,1.509-1.432,1.509c-0.927,0-1.433-0.549-1.433-1.509V24.026z M174.982,27.207c0,0.429,0.188,0.592,0.489,0.592
			c0.3,0,0.488-0.163,0.488-0.592v-3.241c0-0.429-0.189-0.592-0.488-0.592c-0.301,0-0.489,0.163-0.489,0.592V27.207z"/>
		<path style="fill:#4C4C4C;" d="M182.823,26.35v0.798c0,0.96-0.479,1.509-1.406,1.509c-0.926,0-1.406-0.549-1.406-1.509v-3.122
			c0-0.961,0.48-1.509,1.406-1.509c0.927,0,1.406,0.549,1.406,1.509v0.583h-0.892v-0.643c0-0.429-0.188-0.592-0.488-0.592
			c-0.301,0-0.489,0.163-0.489,0.592v3.241c0,0.429,0.189,0.583,0.489,0.583c0.3,0,0.488-0.154,0.488-0.583V26.35H182.823z"/>
		<path style="fill:#4C4C4C;" d="M185.973,22.585h0.943v6.003h-0.943V22.585z"/>
		<path style="fill:#4C4C4C;" d="M193.229,28.588h-0.951l-0.163-1.089h-1.158l-0.163,1.089h-0.865l0.96-6.003h1.381L193.229,28.588z
			 M191.077,26.684h0.909l-0.454-3.036L191.077,26.684z"/>
		<path style="fill:#4C4C4C;" d="M196.243,22.585h0.943v5.146h1.553v0.857h-2.496V22.585z"/>
		<path style="fill:#4C4C4C;" d="M207.626,26.847l0.644-4.262h1.311v6.003h-0.892v-4.305l-0.651,4.305h-0.892l-0.704-4.245v4.245
			h-0.823v-6.003h1.313L207.626,26.847z"/>
		<path style="fill:#4C4C4C;" d="M213.787,25.115h1.295v0.858h-1.295v1.758h1.63v0.857h-2.573v-6.003h2.573v0.857h-1.63V25.115z"/>
		<path style="fill:#4C4C4C;" d="M218.575,22.585h1.492c0.943,0,1.406,0.523,1.406,1.484v3.036c0,0.96-0.463,1.483-1.406,1.483
			h-1.492V22.585z M219.518,23.442v4.288h0.532c0.3,0,0.48-0.154,0.48-0.583v-3.122c0-0.429-0.18-0.583-0.48-0.583H219.518z"/>
		<path style="fill:#4C4C4C;" d="M224.649,22.585h0.943v6.003h-0.943V22.585z"/>
		<path style="fill:#4C4C4C;" d="M231.906,28.588h-0.951l-0.163-1.089h-1.158l-0.162,1.089h-0.866l0.96-6.003h1.381L231.906,28.588z
			 M229.753,26.684h0.909l-0.454-3.036L229.753,26.684z"/>
		<path style="fill:#4C4C4C;" d="M160.681,38.883V32.88h0.395v5.642h1.887v0.36H160.681z"/>
		<path style="fill:#4C4C4C;" d="M166.103,34.347c0-0.875,0.403-1.518,1.312-1.518c0.927,0,1.33,0.643,1.33,1.518v3.07
			c0,0.875-0.403,1.518-1.33,1.518c-0.908,0-1.312-0.643-1.312-1.518V34.347z M166.498,37.442c0,0.652,0.257,1.132,0.917,1.132
			c0.669,0,0.936-0.48,0.936-1.132v-3.121c0-0.652-0.267-1.132-0.936-1.132c-0.66,0-0.917,0.48-0.917,1.132V37.442z"/>
		<path style="fill:#4C4C4C;" d="M174.536,34.347v0.446h-0.378v-0.472c0-0.643-0.248-1.132-0.908-1.132
			c-0.661,0-0.909,0.489-0.909,1.132v3.121c0,0.643,0.248,1.123,0.909,1.123c0.66,0,0.908-0.48,0.908-1.123v-1.295h-0.797v-0.36
			h1.175v1.629c0,0.866-0.378,1.518-1.295,1.518c-0.918,0-1.295-0.651-1.295-1.518v-3.07c0-0.866,0.377-1.518,1.295-1.518
			C174.158,32.829,174.536,33.481,174.536,34.347z"/>
		<path style="fill:#4C4C4C;" d="M177.746,34.347c0-0.875,0.403-1.518,1.311-1.518c0.927,0,1.33,0.643,1.33,1.518v3.07
			c0,0.875-0.403,1.518-1.33,1.518c-0.908,0-1.311-0.643-1.311-1.518V34.347z M178.14,37.442c0,0.652,0.257,1.132,0.917,1.132
			c0.669,0,0.936-0.48,0.936-1.132v-3.121c0-0.652-0.267-1.132-0.936-1.132c-0.66,0-0.917,0.48-0.917,1.132V37.442z"/>
		<path style="fill:#4C4C4C;" d="M190.081,34.347v0.498h-0.378v-0.523c0-0.643-0.248-1.132-0.908-1.132
			c-0.66,0-0.909,0.489-0.909,1.132v3.121c0,0.643,0.249,1.123,0.909,1.123c0.66,0,0.908-0.48,0.908-1.123v-0.711h0.378v0.686
			c0,0.866-0.378,1.518-1.295,1.518c-0.918,0-1.295-0.651-1.295-1.518v-3.07c0-0.866,0.377-1.518,1.295-1.518
			C189.704,32.829,190.081,33.481,190.081,34.347z"/>
		<path style="fill:#4C4C4C;" d="M193.275,34.347c0-0.875,0.403-1.518,1.311-1.518c0.927,0,1.33,0.643,1.33,1.518v3.07
			c0,0.875-0.403,1.518-1.33,1.518c-0.908,0-1.311-0.643-1.311-1.518V34.347z M193.669,37.442c0,0.652,0.257,1.132,0.917,1.132
			c0.669,0,0.936-0.48,0.936-1.132v-3.121c0-0.652-0.267-1.132-0.936-1.132c-0.66,0-0.917,0.48-0.917,1.132V37.442z"/>
		<path style="fill:#4C4C4C;" d="M199.142,38.883V32.88h0.395v5.642h1.887v0.36H199.142z"/>
		<path style="fill:#4C4C4C;" d="M204.59,38.883V32.88h0.395v5.642h1.887v0.36H204.59z"/>
		<path style="fill:#4C4C4C;" d="M212.071,35.659v0.36h-1.638v2.504h1.973v0.36h-2.367V32.88h2.367v0.36h-1.973v2.418H212.071z"/>
		<path style="fill:#4C4C4C;" d="M218.188,34.347v0.498h-0.378v-0.523c0-0.643-0.248-1.132-0.908-1.132
			c-0.661,0-0.909,0.489-0.909,1.132v3.121c0,0.643,0.248,1.123,0.909,1.123c0.66,0,0.908-0.48,0.908-1.123v-0.711h0.378v0.686
			c0,0.866-0.378,1.518-1.295,1.518c-0.918,0-1.295-0.651-1.295-1.518v-3.07c0-0.866,0.377-1.518,1.295-1.518
			C217.81,32.829,218.188,33.481,218.188,34.347z"/>
		<path style="fill:#4C4C4C;" d="M222.445,38.883v-5.643h-1.227v-0.36h2.839v0.36h-1.218v5.643H222.445z"/>
		<path style="fill:#4C4C4C;" d="M227.54,32.88v6.003h-0.395V32.88H227.54z"/>
		<path style="fill:#4C4C4C;" d="M230.775,34.347c0-0.875,0.403-1.518,1.311-1.518c0.927,0,1.33,0.643,1.33,1.518v3.07
			c0,0.875-0.403,1.518-1.33,1.518c-0.908,0-1.311-0.643-1.311-1.518V34.347z M231.169,37.442c0,0.652,0.257,1.132,0.917,1.132
			c0.669,0,0.936-0.48,0.936-1.132v-3.121c0-0.652-0.267-1.132-0.936-1.132c-0.66,0-0.917,0.48-0.917,1.132V37.442z"/>
		<path style="fill:#4C4C4C;" d="M237.003,38.883h-0.36V32.88h0.515l1.801,5.068V32.88h0.36v6.003h-0.438l-1.878-5.351V38.883z"/>
	</g>
	<g>
		<g>
			<radialGradient id="SVGID_1_" cx="54.5792" cy="124.9823" r="21.5" gradientUnits="userSpaceOnUse">
				<stop  offset="0" style="stop-color:#000056"/>
				<stop  offset="0.2482" style="stop-color:#4C4C88;stop-opacity:0.7518"/>
				<stop  offset="0.5193" style="stop-color:#9898BB;stop-opacity:0.4807"/>
				<stop  offset="0.744" style="stop-color:#D0D0E0;stop-opacity:0.256"/>
				<stop  offset="0.9103" style="stop-color:#F2F2F6;stop-opacity:0.0897"/>
				<stop  offset="1" style="stop-color:#FFFFFF;stop-opacity:0"/>
			</radialGradient>
			<circle style="opacity:0.8;fill:url(#SVGID_1_);" cx="54.579" cy="124.982" r="21.5"/>
			
				<linearGradient id="SVGID_00000108288686618808855670000005628904847917814402_" gradientUnits="userSpaceOnUse" x1="208.9121" y1="-39.0878" x2="233.6608" y2="-14.3391" gradientTransform="matrix(0 1 -1 0 22.6251 -104.5783)">
				<stop  offset="0" style="stop-color:#FEFB01"/>
				<stop  offset="1" style="stop-color:#FCBB45"/>
			</linearGradient>
			<path style="fill:url(#SVGID_00000108288686618808855670000005628904847917814402_);" d="M34.717,123.68v-13.944
				c0-4.207,3.442-7.649,7.649-7.649h13.944c4.207,0,7.649,3.442,7.649,7.649l0,13.944c0,4.207-3.442,7.649-7.649,7.649H42.367
				C38.159,131.329,34.717,127.887,34.717,123.68z"/>
			<path style="fill:#FFFFFF;" d="M40.396,121.432c0-0.093,0-0.187,0-0.28c0.115-0.133,0.236-0.247,0.423-0.284
				c1.472-0.292,2.456-1.23,3.199-2.462c0.624-1.036,0.524-1.272-0.627-1.68c-0.066-0.023-0.134-0.042-0.198-0.069
				c-0.249-0.102-0.495-0.211-0.7-0.39c-0.515-0.448-0.21-1.093,0.397-1.239c0.444-0.107,0.831,0.179,1.262,0.232
				c0.288,0.036,0.403-0.061,0.368-0.368c-0.091-0.79-0.089-1.585-0.052-2.378c0.071-1.513,0.815-2.665,2.075-3.412
				c1.84-1.091,3.764-1.104,5.618-0.017c1.157,0.679,1.904,1.706,2.066,3.084c0.105,0.896,0.063,1.794-0.007,2.692
				c-0.031,0.39,0.049,0.461,0.434,0.371c0.478-0.112,0.879-0.359,1.376-0.14c0.266,0.117,0.498,0.368,0.491,0.659
				c-0.005,0.199-0.121,0.382-0.271,0.513c-0.23,0.2-0.529,0.311-0.808,0.424c-0.216,0.088-0.441,0.156-0.651,0.254
				c-0.435,0.204-0.56,0.473-0.356,0.903c0.704,1.488,1.739,2.618,3.412,3.011c0.204,0.048,0.368,0.131,0.492,0.297
				c0,0.093,0,0.187,0,0.28c-0.159,0.326-0.442,0.506-0.764,0.628c-0.327,0.124-0.656,0.263-1.007,0.285
				c-0.485,0.031-0.74,0.243-0.814,0.748c-0.07,0.48-0.215,0.549-0.705,0.509c-0.116-0.009-0.231-0.031-0.346-0.051
				c-0.959-0.17-1.86-0.073-2.649,0.564c-0.154,0.124-0.325,0.228-0.491,0.336c-1.344,0.872-2.72,0.972-4.124,0.153
				c-0.383-0.223-0.745-0.48-1.117-0.723c-0.307-0.201-0.638-0.313-1.006-0.369c-0.582-0.088-1.139,0.042-1.706,0.105
				c-0.291,0.032-0.572-0.051-0.589-0.352c-0.04-0.725-0.484-0.903-1.094-0.97c-0.284-0.031-0.565-0.147-0.833-0.259
				C40.801,121.914,40.535,121.741,40.396,121.432z"/>
		</g>
		<g>
			
				<radialGradient id="SVGID_00000003070862059408128780000012153860953303190155_" cx="140.3424" cy="82.7696" r="21" gradientUnits="userSpaceOnUse">
				<stop  offset="0" style="stop-color:#000056"/>
				<stop  offset="0.2482" style="stop-color:#4C4C88;stop-opacity:0.7518"/>
				<stop  offset="0.5193" style="stop-color:#9898BB;stop-opacity:0.4807"/>
				<stop  offset="0.744" style="stop-color:#D0D0E0;stop-opacity:0.256"/>
				<stop  offset="0.9103" style="stop-color:#F2F2F6;stop-opacity:0.0897"/>
				<stop  offset="1" style="stop-color:#FFFFFF;stop-opacity:0"/>
			</radialGradient>
			
				<circle style="opacity:0.8;fill:url(#SVGID_00000003070862059408128780000012153860953303190155_);" cx="140.342" cy="82.77" r="21"/>
			
				<linearGradient id="SVGID_00000122699993855364988730000017083920839229250946_" gradientUnits="userSpaceOnUse" x1="238.9426" y1="-129.1998" x2="263.6912" y2="-104.4511" gradientTransform="matrix(0 1 -1 0 17.4666 -177.0927)">
				<stop  offset="0" style="stop-color:#33CCFF"/>
				<stop  offset="1" style="stop-color:#337FFF"/>
			</linearGradient>
			<path style="fill:url(#SVGID_00000122699993855364988730000017083920839229250946_);" d="M119.671,81.196V67.252
				c0-4.207,3.442-7.649,7.649-7.649h13.944c4.207,0,7.649,3.442,7.649,7.649v13.944c0,4.207-3.442,7.649-7.649,7.649H127.32
				C123.113,88.845,119.671,85.403,119.671,81.196z"/>
			<path style="fill:#FFFFFF;" d="M142.37,69.214c-0.506,0.229-1.066,0.368-1.613,0.46c0.259-0.044,0.64-0.513,0.793-0.703
				c0.233-0.29,0.426-0.62,0.535-0.976c0.014-0.028,0.024-0.063-0.004-0.084c-0.035-0.014-0.058-0.007-0.085,0.007
				c-0.61,0.327-1.241,0.564-1.912,0.732c-0.056,0.014-0.097,0-0.132-0.035c-0.056-0.063-0.108-0.122-0.167-0.171
				c-0.282-0.24-0.585-0.428-0.926-0.567c-0.448-0.183-0.938-0.26-1.421-0.229c-0.47,0.031-0.931,0.163-1.348,0.381
				c-0.418,0.218-0.79,0.522-1.087,0.888c-0.307,0.379-0.533,0.826-0.649,1.301c-0.112,0.458-0.103,0.91-0.034,1.373
				c0.01,0.077,0.003,0.087-0.066,0.077c-2.626-0.391-4.803-1.331-6.57-3.344c-0.077-0.087-0.118-0.087-0.181,0.007
				c-0.773,1.159-0.398,3.021,0.568,3.937c0.129,0.122,0.261,0.244,0.404,0.355c-0.052,0.011-0.695-0.059-1.268-0.355
				c-0.077-0.049-0.115-0.021-0.122,0.066c-0.007,0.125,0.004,0.241,0.021,0.376c0.148,1.175,0.962,2.262,2.076,2.686
				c0.132,0.056,0.279,0.105,0.421,0.129c-0.254,0.056-0.515,0.095-1.243,0.038c-0.091-0.017-0.125,0.028-0.091,0.115
				c0.547,1.491,1.728,1.935,2.613,2.188c0.118,0.021,0.237,0.021,0.356,0.049c-0.007,0.011-0.014,0.011-0.021,0.021
				c-0.293,0.447-1.31,0.78-1.784,0.946c-0.861,0.301-1.799,0.437-2.71,0.347c-0.146-0.021-0.176-0.02-0.216,0
				c-0.04,0.025-0.005,0.06,0.042,0.097c0.185,0.122,0.373,0.23,0.564,0.335c0.578,0.307,1.181,0.551,1.811,0.725
				c3.255,0.899,6.922,0.238,9.366-2.19c1.919-1.907,2.592-4.537,2.592-7.17c0-0.103,0.122-0.16,0.194-0.214
				c0.499-0.375,0.902-0.824,1.275-1.326c0.084-0.113,0.085-0.213,0.085-0.254c0-0.007,0-0.014,0-0.014
				C142.436,69.172,142.435,69.185,142.37,69.214z"/>
		</g>
		<g>
			
				<radialGradient id="SVGID_00000016798109443448175550000013859570484372961939_" cx="140.3424" cy="124.9823" r="21" gradientUnits="userSpaceOnUse">
				<stop  offset="0" style="stop-color:#000056"/>
				<stop  offset="0.2482" style="stop-color:#4C4C88;stop-opacity:0.7518"/>
				<stop  offset="0.5193" style="stop-color:#9898BB;stop-opacity:0.4807"/>
				<stop  offset="0.744" style="stop-color:#D0D0E0;stop-opacity:0.256"/>
				<stop  offset="0.9103" style="stop-color:#F2F2F6;stop-opacity:0.0897"/>
				<stop  offset="1" style="stop-color:#FFFFFF;stop-opacity:0"/>
			</radialGradient>
			
				<circle style="opacity:0.8;fill:url(#SVGID_00000016798109443448175550000013859570484372961939_);" cx="140.342" cy="124.982" r="21"/>
			
				<linearGradient id="SVGID_00000044143582391674152320000017591779402147567541_" gradientUnits="userSpaceOnUse" x1="268.9834" y1="-99.159" x2="293.7321" y2="-74.4103" gradientTransform="matrix(0 1 -1 0 47.5074 -164.6495)">
				<stop  offset="0" style="stop-color:#60FC7C"/>
				<stop  offset="1" style="stop-color:#4AB161"/>
			</linearGradient>
			<path style="fill:url(#SVGID_00000044143582391674152320000017591779402147567541_);" d="M119.671,123.68v-13.944
				c0-4.207,3.442-7.649,7.649-7.649h13.944c4.207,0,7.649,3.442,7.649,7.649v13.944c0,4.207-3.442,7.649-7.649,7.649l-13.944,0
				C123.113,131.33,119.671,127.887,119.671,123.68z"/>
			<path style="fill:#FFFFFF;" d="M126.392,124.982l1.219-4.549c-0.69-1.245-1.053-2.641-1.053-4.057
				c0-4.631,3.768-8.398,8.398-8.398c4.631,0,8.398,3.768,8.398,8.398c0,4.631-3.768,8.398-8.398,8.398
				c-1.39,0-2.763-0.351-3.992-1.018L126.392,124.982z M131.191,122.053l0.288,0.172c1.057,0.63,2.259,0.963,3.477,0.963
				c3.756,0,6.811-3.055,6.811-6.811s-3.055-6.811-6.811-6.811c-3.755,0-6.811,3.055-6.811,6.811c0,1.24,0.344,2.461,0.996,3.531
				l0.177,0.29l-0.68,2.539L131.191,122.053z"/>
			<path style="fill-rule:evenodd;clip-rule:evenodd;fill:#FFFFFF;" d="M138.081,117.545c-0.346-0.207-0.795-0.438-1.203-0.271
				c-0.312,0.128-0.512,0.617-0.714,0.867c-0.104,0.128-0.228,0.148-0.387,0.084c-1.173-0.467-2.071-1.25-2.719-2.329
				c-0.11-0.168-0.09-0.3,0.042-0.455c0.196-0.23,0.441-0.492,0.494-0.802c0.053-0.31-0.093-0.673-0.221-0.949
				c-0.164-0.353-0.347-0.856-0.701-1.056c-0.325-0.184-0.753-0.081-1.043,0.155c-0.5,0.407-0.741,1.045-0.734,1.677
				c0.002,0.18,0.024,0.359,0.066,0.532c0.101,0.417,0.294,0.806,0.51,1.176c0.163,0.279,0.341,0.55,0.533,0.81
				c0.627,0.852,1.408,1.593,2.311,2.146c0.451,0.277,0.938,0.519,1.441,0.685c0.565,0.187,1.068,0.381,1.678,0.265
				c0.639-0.121,1.268-0.516,1.522-1.132c0.075-0.182,0.112-0.385,0.07-0.577C138.941,117.974,138.402,117.737,138.081,117.545z"/>
		</g>
		<g>
			
				<radialGradient id="SVGID_00000128447862329911067190000000155327906380954267_" cx="97.4607" cy="124.9823" r="21" gradientUnits="userSpaceOnUse">
				<stop  offset="0" style="stop-color:#000056"/>
				<stop  offset="0.2482" style="stop-color:#4C4C88;stop-opacity:0.7518"/>
				<stop  offset="0.5193" style="stop-color:#9898BB;stop-opacity:0.4807"/>
				<stop  offset="0.744" style="stop-color:#D0D0E0;stop-opacity:0.256"/>
				<stop  offset="0.9103" style="stop-color:#F2F2F6;stop-opacity:0.0897"/>
				<stop  offset="1" style="stop-color:#FFFFFF;stop-opacity:0"/>
			</radialGradient>
			
				<circle style="opacity:0.8;fill:url(#SVGID_00000128447862329911067190000000155327906380954267_);" cx="97.461" cy="124.982" r="21"/>
			
				<linearGradient id="SVGID_00000060713905281733743420000016704423466580083333_" gradientUnits="userSpaceOnUse" x1="238.9425" y1="-69.1183" x2="263.6913" y2="-44.3695" gradientTransform="matrix(0 1 -1 0 35.0641 -134.6087)">
				<stop  offset="0" style="stop-color:#FF0000"/>
				<stop  offset="1" style="stop-color:#850000"/>
			</linearGradient>
			<path style="fill:url(#SVGID_00000060713905281733743420000016704423466580083333_);" d="M77.187,123.68v-13.944
				c0-4.207,3.442-7.649,7.649-7.649l13.944,0c4.207,0,7.649,3.442,7.649,7.649l0,13.944c0,4.207-3.442,7.649-7.649,7.649H84.836
				C80.629,131.329,77.187,127.887,77.187,123.68z"/>
			<path style="fill:#FFFFFF;" d="M99.636,114.582c0-1.939-1.572-3.511-3.511-3.511h-8.978c-1.939,0-3.511,1.572-3.511,3.511v4.178
				c0,1.939,1.572,3.511,3.511,3.511h8.978c1.939,0,3.511-1.572,3.511-3.511V114.582z M94.356,116.984l-4.026,1.992
				c-0.158,0.085-0.694-0.029-0.694-0.208v-4.089c0-0.182,0.541-0.296,0.699-0.206l3.854,2.097
				C94.35,116.662,94.52,116.896,94.356,116.984z"/>
		</g>
		<g>
			
				<radialGradient id="SVGID_00000165957233214804868890000008366686391047610247_" cx="97.4607" cy="82.7696" r="21" gradientUnits="userSpaceOnUse">
				<stop  offset="0" style="stop-color:#000056"/>
				<stop  offset="0.2482" style="stop-color:#4C4C88;stop-opacity:0.7518"/>
				<stop  offset="0.5193" style="stop-color:#9898BB;stop-opacity:0.4807"/>
				<stop  offset="0.744" style="stop-color:#D0D0E0;stop-opacity:0.256"/>
				<stop  offset="0.9103" style="stop-color:#F2F2F6;stop-opacity:0.0897"/>
				<stop  offset="1" style="stop-color:#FFFFFF;stop-opacity:0"/>
			</radialGradient>
			
				<circle style="opacity:0.8;fill:url(#SVGID_00000165957233214804868890000008366686391047610247_);" cx="97.461" cy="82.77" r="21"/>
			
				<linearGradient id="SVGID_00000045608275446740097820000008123112046357974146_" gradientUnits="userSpaceOnUse" x1="206.3535" y1="-101.7074" x2="244.1727" y2="-63.8882" gradientTransform="matrix(0 1 -1 0 5.0233 -147.052)">
				<stop  offset="0.0011" style="stop-color:#FBE18A"/>
				<stop  offset="0.2094" style="stop-color:#FCBB45"/>
				<stop  offset="0.3765" style="stop-color:#F75274"/>
				<stop  offset="0.5238" style="stop-color:#D53692"/>
				<stop  offset="0.7394" style="stop-color:#8F39CE"/>
				<stop  offset="1" style="stop-color:#5B4FE9"/>
			</linearGradient>
			<path style="fill:url(#SVGID_00000045608275446740097820000008123112046357974146_);" d="M77.187,81.196l0-13.944
				c0-4.207,3.442-7.649,7.649-7.649l13.944,0c4.207,0,7.649,3.442,7.649,7.649l0,13.944c0,4.207-3.442,7.649-7.649,7.649l-13.944,0
				C80.629,88.845,77.187,85.403,77.187,81.196z"/>
			<g>
				<path style="fill:#FFFFFF;" d="M96.347,68.713c-0.555,0-1.005,0.45-1.005,1.005c0,0.555,0.45,1.005,1.005,1.005
					c0.555,0,1.005-0.45,1.005-1.005C97.352,69.163,96.902,68.713,96.347,68.713z"/>
				<path style="fill:#FFFFFF;" d="M91.878,70.002c-2.328,0-4.222,1.894-4.222,4.222c0,2.328,1.894,4.222,4.222,4.222
					c2.328,0,4.222-1.894,4.222-4.222C96.1,71.896,94.206,70.002,91.878,70.002z M91.878,76.929c-1.491,0-2.705-1.213-2.705-2.704
					c0-1.491,1.213-2.704,2.705-2.704c1.491,0,2.704,1.213,2.704,2.704C94.583,75.715,93.37,76.929,91.878,76.929z"/>
				<path style="fill:#FFFFFF;" d="M95.23,82.796h-6.845c-2.839,0-5.149-2.31-5.149-5.149v-6.845c0-2.84,2.31-5.149,5.149-5.149
					h6.845c2.839,0,5.15,2.31,5.15,5.149v6.845C100.38,80.486,98.07,82.796,95.23,82.796z M88.386,67.265
					c-1.95,0-3.537,1.586-3.537,3.537v6.845c0,1.95,1.586,3.537,3.537,3.537h6.845c1.95,0,3.537-1.586,3.537-3.537v-6.845
					c0-1.95-1.587-3.537-3.537-3.537H88.386z"/>
			</g>
		</g>
		
			<radialGradient id="SVGID_00000072973821864798653050000015495134558304197771_" cx="49.5956" cy="81.2275" r="21.5" gradientUnits="userSpaceOnUse">
			<stop  offset="0" style="stop-color:#000056"/>
			<stop  offset="0.2482" style="stop-color:#4C4C88;stop-opacity:0.7518"/>
			<stop  offset="0.5193" style="stop-color:#9898BB;stop-opacity:0.4807"/>
			<stop  offset="0.744" style="stop-color:#D0D0E0;stop-opacity:0.256"/>
			<stop  offset="0.9103" style="stop-color:#F2F2F6;stop-opacity:0.0897"/>
			<stop  offset="1" style="stop-color:#FFFFFF;stop-opacity:0"/>
		</radialGradient>
		
			<circle style="opacity:0.8;fill:url(#SVGID_00000072973821864798653050000015495134558304197771_);" cx="49.596" cy="81.228" r="21.5"/>
		<g>
			
				<linearGradient id="SVGID_00000160188736694078214580000003735618175467508655_" gradientUnits="userSpaceOnUse" x1="178.3714" y1="-69.1286" x2="203.1201" y2="-44.3799" gradientTransform="matrix(0 1 -1 0 -7.4157 -117.0216)">
				<stop  offset="0" style="stop-color:#4676ED"/>
				<stop  offset="0.1854" style="stop-color:#436DE4"/>
				<stop  offset="0.487" style="stop-color:#3C55CD"/>
				<stop  offset="0.8651" style="stop-color:#302EA8"/>
				<stop  offset="1" style="stop-color:#2B1E99"/>
			</linearGradient>
			<path style="fill:url(#SVGID_00000160188736694078214580000003735618175467508655_);" d="M34.717,80.696V66.752
				c0-4.207,3.442-7.649,7.649-7.649h13.944c4.207,0,7.649,3.442,7.649,7.649l0,13.944c0,4.207-3.442,7.649-7.649,7.649h-4.687
				l-2.455-0.598l-2.115,0.598l-4.687,0C38.159,88.345,34.717,84.903,34.717,80.696z"/>
			<g>
				<path style="fill:#FFFFFF;" d="M55.03,78.431l0.648-4.227h-4.055v-2.743c0-1.156,0.566-2.283,2.383-2.283h1.844V65.58
					c0,0-1.673-0.286-3.273-0.286c-3.34,0-5.523,2.024-5.523,5.689v3.221h-3.712v4.227h3.712v9.915h4.569v-9.915H55.03z"/>
			</g>
		</g>
		<g>
			
				<radialGradient id="SVGID_00000036244573055807249080000007943471945672562064_" cx="54.5792" cy="168.1951" r="21.5" gradientUnits="userSpaceOnUse">
				<stop  offset="0" style="stop-color:#000056"/>
				<stop  offset="0.2482" style="stop-color:#4C4C88;stop-opacity:0.7518"/>
				<stop  offset="0.5193" style="stop-color:#9898BB;stop-opacity:0.4807"/>
				<stop  offset="0.744" style="stop-color:#D0D0E0;stop-opacity:0.256"/>
				<stop  offset="0.9103" style="stop-color:#F2F2F6;stop-opacity:0.0897"/>
				<stop  offset="1" style="stop-color:#FFFFFF;stop-opacity:0"/>
			</radialGradient>
			
				<circle style="opacity:0.8;fill:url(#SVGID_00000036244573055807249080000007943471945672562064_);" cx="54.579" cy="168.195" r="21.5"/>
			
				<linearGradient id="SVGID_00000057123798007891252730000003122938072443460245_" gradientUnits="userSpaceOnUse" x1="238.9678" y1="-9.0321" x2="263.7165" y2="15.7166" gradientTransform="matrix(0 1 -1 0 52.6808 -92.1288)">
				<stop  offset="0" style="stop-color:#007AB5"/>
				<stop  offset="1" style="stop-color:#0046E5"/>
			</linearGradient>
			<path style="fill:url(#SVGID_00000057123798007891252730000003122938072443460245_);" d="M34.717,166.185v-13.944
				c0-4.207,3.442-7.649,7.649-7.649h13.944c4.207,0,7.649,3.442,7.649,7.649l0,13.944c0,4.207-3.442,7.649-7.649,7.649l-13.944,0
				C38.159,173.835,34.717,170.393,34.717,166.185z"/>
			<path style="fill:#FFFFFF;" d="M43.207,156.49h2.832v9.097h-2.832V156.49z M44.623,151.97c0.906,0,1.639,0.735,1.639,1.638
				c0,0.905-0.734,1.641-1.639,1.641c-0.908,0-1.642-0.736-1.642-1.641C42.982,152.704,43.715,151.97,44.623,151.97"/>
			<path style="fill:#FFFFFF;" d="M47.813,156.49h2.712v1.244h0.037c0.378-0.716,1.3-1.469,2.678-1.469
				c2.863,0,3.391,1.883,3.391,4.333v4.989h-2.826v-4.423c0-1.056-0.021-2.412-1.47-2.412c-1.472,0-1.696,1.149-1.696,2.335v4.5
				h-2.826V156.49z"/>
		</g>
		<g>
			
				<radialGradient id="SVGID_00000111175886204941060340000016165059434922768018_" cx="182.8134" cy="83.2059" r="21" gradientUnits="userSpaceOnUse">
				<stop  offset="0" style="stop-color:#000056"/>
				<stop  offset="0.2482" style="stop-color:#4C4C88;stop-opacity:0.7518"/>
				<stop  offset="0.5193" style="stop-color:#9898BB;stop-opacity:0.4807"/>
				<stop  offset="0.744" style="stop-color:#D0D0E0;stop-opacity:0.256"/>
				<stop  offset="0.9103" style="stop-color:#F2F2F6;stop-opacity:0.0897"/>
				<stop  offset="1" style="stop-color:#FFFFFF;stop-opacity:0"/>
			</radialGradient>
			
				<circle style="opacity:0.8;fill:url(#SVGID_00000111175886204941060340000016165059434922768018_);" cx="182.813" cy="83.206" r="21"/>
			
				<linearGradient id="SVGID_00000092425158655033590570000000208073164959576237_" gradientUnits="userSpaceOnUse" x1="214.0498" y1="-86.8256" x2="238.7985" y2="-111.5743" gradientTransform="matrix(0 1 -1 0 77.5631 -152.2)">
				<stop  offset="0" style="stop-color:#22004A"/>
				<stop  offset="0.9565" style="stop-color:#020003"/>
				<stop  offset="1" style="stop-color:#000000"/>
			</linearGradient>
			<path style="fill:url(#SVGID_00000092425158655033590570000000208073164959576237_);" d="M162.142,81.196V67.252
				c0-4.207,3.442-7.649,7.649-7.649h13.944c4.207,0,7.649,3.442,7.649,7.649v13.944c0,4.207-3.442,7.649-7.649,7.649h-13.944
				C165.584,88.845,162.142,85.403,162.142,81.196z"/>
			<g>
				<path style="fill-rule:evenodd;clip-rule:evenodd;fill:#EE1D52;" d="M180.717,71.542c1.196,0.855,2.662,1.358,4.245,1.358
					v-3.045c-0.3,0-0.598-0.031-0.891-0.093v2.397c-1.583,0-3.049-0.503-4.245-1.358v6.214c0,3.108-2.521,5.628-5.631,5.628
					c-1.16,0-2.239-0.351-3.135-0.952c1.023,1.045,2.448,1.693,4.026,1.693c3.11,0,5.631-2.52,5.631-5.628L180.717,71.542
					L180.717,71.542z M181.817,68.47c-0.611-0.668-1.013-1.531-1.1-2.485v-0.392h-0.845C180.085,66.807,180.81,67.842,181.817,68.47
					L181.817,68.47z M173.027,79.305c-0.341-0.448-0.526-0.995-0.525-1.559c0-1.422,1.153-2.574,2.576-2.574
					c0.265,0,0.529,0.04,0.781,0.121V72.18c-0.295-0.04-0.593-0.058-0.891-0.051v2.423c-0.253-0.08-0.517-0.121-0.782-0.121
					c-1.423,0-2.576,1.153-2.576,2.574C171.61,78.011,172.186,78.881,173.027,79.305z"/>
				<path style="fill-rule:evenodd;clip-rule:evenodd;fill:#FFFFFF;" d="M179.826,70.801c1.197,0.855,2.662,1.358,4.245,1.358
					v-2.397c-0.884-0.188-1.666-0.65-2.254-1.292c-1.007-0.628-1.732-1.664-1.945-2.876h-2.219v12.161
					c-0.005,1.418-1.156,2.566-2.576,2.566c-0.837,0-1.58-0.398-2.05-1.016c-0.84-0.424-1.417-1.294-1.417-2.3
					c0-1.422,1.153-2.574,2.576-2.574c0.273,0,0.535,0.042,0.782,0.121v-2.423c-3.055,0.063-5.512,2.558-5.512,5.627
					c0,1.532,0.612,2.92,1.605,3.935c0.896,0.601,1.974,0.952,3.135,0.952c3.11,0,5.631-2.52,5.631-5.628V70.801z"/>
				<path style="fill-rule:evenodd;clip-rule:evenodd;fill:#69C9D0;" d="M184.071,69.762v-0.648
					c-0.797,0.001-1.578-0.222-2.254-0.644C182.415,69.125,183.203,69.577,184.071,69.762z M179.872,65.594
					c-0.02-0.116-0.036-0.232-0.047-0.35v-0.392h-3.064v12.161c-0.005,1.418-1.156,2.566-2.576,2.566
					c-0.417,0-0.81-0.099-1.159-0.275c0.471,0.617,1.214,1.016,2.05,1.016c1.419,0,2.571-1.148,2.576-2.566V65.594H179.872z
					 M174.967,72.129v-0.69c-0.256-0.035-0.514-0.053-0.773-0.052c-3.11,0-5.631,2.52-5.631,5.628c0,1.949,0.991,3.666,2.497,4.676
					c-0.993-1.014-1.605-2.403-1.605-3.935C169.455,74.687,171.912,72.192,174.967,72.129L174.967,72.129z"/>
			</g>
		</g>
		<g>
			
				<radialGradient id="SVGID_00000032618185001946988700000005006093333780585646_" cx="97.4607" cy="168.1951" r="21" gradientUnits="userSpaceOnUse">
				<stop  offset="0" style="stop-color:#000056"/>
				<stop  offset="0.2482" style="stop-color:#4C4C88;stop-opacity:0.7518"/>
				<stop  offset="0.5193" style="stop-color:#9898BB;stop-opacity:0.4807"/>
				<stop  offset="0.744" style="stop-color:#D0D0E0;stop-opacity:0.256"/>
				<stop  offset="0.9103" style="stop-color:#F2F2F6;stop-opacity:0.0897"/>
				<stop  offset="1" style="stop-color:#FFFFFF;stop-opacity:0"/>
			</radialGradient>
			
				<circle style="opacity:0.8;fill:url(#SVGID_00000032618185001946988700000005006093333780585646_);" cx="97.461" cy="168.195" r="21"/>
			
				<linearGradient id="SVGID_00000042723008177261028420000012584755719107283899_" gradientUnits="userSpaceOnUse" x1="266.7512" y1="-26.6882" x2="295.994" y2="-26.6882" gradientTransform="matrix(0 1 -1 0 65.1198 -122.1592)">
				<stop  offset="0" style="stop-color:#F26798"/>
				<stop  offset="0.8664" style="stop-color:#C82093"/>
				<stop  offset="1" style="stop-color:#C11592"/>
			</linearGradient>
			<path style="fill:url(#SVGID_00000042723008177261028420000012584755719107283899_);" d="M77.187,166.185l0-13.944
				c0-4.207,3.442-7.649,7.649-7.649l13.944,0c4.207,0,7.649,3.442,7.649,7.649l0,13.944c0,4.207-3.442,7.649-7.649,7.649l-13.944,0
				C80.629,173.835,77.187,170.393,77.187,166.185z"/>
			<path style="fill:#FFFFFF;" d="M91.808,150.999c-4.535,0-8.225,3.685-8.225,8.215s3.69,8.214,8.225,8.214
				c4.535,0,8.225-3.685,8.225-8.214C100.033,154.684,96.343,150.999,91.808,150.999L91.808,150.999z M97.22,154.876
				c0.938,1.163,1.508,2.631,1.535,4.231c-0.312-0.064-1.634-0.311-3.214-0.311c-0.51,0-1.046,0.026-1.584,0.092
				c-0.046-0.111-0.091-0.221-0.139-0.332c-0.14-0.328-0.29-0.654-0.446-0.974C95.804,156.581,96.977,155.191,97.22,154.876
				L97.22,154.876z M91.808,152.285c1.753,0,3.355,0.651,4.578,1.723c-0.194,0.264-1.244,1.577-3.589,2.463
				c-1.085-1.984-2.273-3.627-2.556-4.008C90.745,152.347,91.269,152.285,91.808,152.285L91.808,152.285z M88.823,152.958
				c0.24,0.33,1.429,1.99,2.543,3.958c-2.988,0.785-5.64,0.837-6.281,0.837h-0.068C85.477,155.633,86.909,153.871,88.823,152.958
				L88.823,152.958z M84.859,159.224c0-0.057,0.001-0.114,0.003-0.171c0.041,0.001,0.103,0.001,0.182,0.001
				c0.862,0,3.856-0.071,6.94-0.987c0.187,0.366,0.366,0.738,0.531,1.109c-0.078,0.022-0.155,0.045-0.231,0.07
				c-3.473,1.122-5.382,4.091-5.676,4.577C85.521,162.596,84.859,160.986,84.859,159.224L84.859,159.224z M91.808,166.163
				c-1.594,0-3.064-0.54-4.238-1.445c0.199-0.389,1.639-2.983,5.445-4.308c0.002-0.001,0.005-0.002,0.008-0.003
				c0.954,2.485,1.359,4.57,1.469,5.216C93.666,165.972,92.759,166.163,91.808,166.163L91.808,166.163z M95.744,164.94
				c-0.093-0.535-0.468-2.489-1.332-4.873c0.485-0.075,0.956-0.105,1.398-0.105c1.452,0,2.588,0.318,2.852,0.399
				C98.349,162.254,97.265,163.892,95.744,164.94L95.744,164.94z"/>
		</g>
		<g>
			
				<radialGradient id="SVGID_00000005982618658943214730000000069382746600957063_" cx="183.2241" cy="124.9823" r="21" gradientUnits="userSpaceOnUse">
				<stop  offset="0" style="stop-color:#000056"/>
				<stop  offset="0.2482" style="stop-color:#4C4C88;stop-opacity:0.7518"/>
				<stop  offset="0.5193" style="stop-color:#9898BB;stop-opacity:0.4807"/>
				<stop  offset="0.744" style="stop-color:#D0D0E0;stop-opacity:0.256"/>
				<stop  offset="0.9103" style="stop-color:#F2F2F6;stop-opacity:0.0897"/>
				<stop  offset="1" style="stop-color:#FFFFFF;stop-opacity:0"/>
			</radialGradient>
			
				<circle style="opacity:0.8;fill:url(#SVGID_00000005982618658943214730000000069382746600957063_);" cx="183.224" cy="124.982" r="21"/>
			
				<linearGradient id="SVGID_00000172424906538585008120000013890325210633451422_" gradientUnits="userSpaceOnUse" x1="299.024" y1="-129.1998" x2="323.7727" y2="-104.4511" gradientTransform="matrix(0 1 -1 0 59.9506 -194.6902)">
				<stop  offset="0" style="stop-color:#006EF5"/>
				<stop  offset="0.7752" style="stop-color:#2131AE"/>
				<stop  offset="1" style="stop-color:#2B1E99"/>
			</linearGradient>
			<path style="fill:url(#SVGID_00000172424906538585008120000013890325210633451422_);" d="M162.155,123.68v-13.944
				c0-4.207,3.442-7.649,7.649-7.649h13.944c4.207,0,7.649,3.442,7.649,7.649l0,13.944c0,4.207-3.442,7.649-7.649,7.649h-13.944
				C165.597,131.329,162.155,127.887,162.155,123.68z"/>
			<path style="fill:#FFFFFF;" d="M177.59,119.335c0,0.445-0.089,0.836-0.267,1.172c-0.178,0.336-0.423,0.618-0.735,0.846
				c-0.312,0.228-0.673,0.401-1.083,0.519c-0.411,0.119-0.848,0.178-1.313,0.178h-5.09v-10.536h5.639
				c0.366,0,0.698,0.079,0.994,0.238c0.297,0.159,0.549,0.364,0.757,0.616c0.208,0.252,0.368,0.54,0.482,0.861
				c0.114,0.322,0.171,0.646,0.171,0.972c0,0.514-0.129,0.997-0.386,1.447c-0.257,0.45-0.633,0.784-1.128,1.002
				c0.604,0.178,1.081,0.497,1.432,0.957C177.414,118.066,177.59,118.643,177.59,119.335z M171.15,113.266v2.656h2.73
				c0.346,0,0.641-0.119,0.883-0.356c0.242-0.237,0.363-0.564,0.363-0.979c0-0.406-0.111-0.727-0.334-0.965
				c-0.222-0.237-0.497-0.356-0.824-0.356H171.15z M175.527,118.949c0-0.188-0.032-0.368-0.096-0.542
				c-0.064-0.173-0.151-0.324-0.26-0.453c-0.109-0.129-0.237-0.23-0.386-0.304c-0.148-0.074-0.312-0.111-0.49-0.111h-3.146v2.775
				h3.042c0.188,0,0.364-0.035,0.527-0.104c0.163-0.069,0.304-0.166,0.423-0.289c0.119-0.124,0.213-0.27,0.282-0.438
				C175.493,119.315,175.527,119.137,175.527,118.949z"/>
			<path style="fill:#FFFFFF;" d="M182.026,122.05c-0.604,0-1.15-0.103-1.639-0.309c-0.968-0.412-1.651-1.105-2.049-2.078
				c-0.187-0.47-0.28-0.963-0.28-1.481c0-0.537,0.091-1.042,0.273-1.517c0.39-0.985,1.073-1.687,2.049-2.107
				c0.494-0.211,1.047-0.316,1.661-0.316c0.613,0,1.162,0.106,1.646,0.316c1.591,0.694,2.341,2.236,2.272,3.911
				c-0.005,0.115-0.017,0.211-0.036,0.288h-5.824c0.029,0.297,0.101,0.561,0.216,0.791c0.115,0.23,0.263,0.427,0.446,0.59
				c0.182,0.163,0.388,0.288,0.618,0.374c0.23,0.086,0.469,0.13,0.719,0.13c0.383,0,0.745-0.094,1.085-0.281
				c0.34-0.187,0.573-0.433,0.697-0.74l1.654,0.46c-0.278,0.575-0.721,1.047-1.33,1.416
				C183.595,121.866,182.869,122.05,182.026,122.05z M183.982,117.507c-0.048-0.565-0.257-1.018-0.626-1.359
				c-0.369-0.34-0.817-0.51-1.344-0.51c-0.259,0-0.501,0.046-0.726,0.137c-0.225,0.091-0.424,0.218-0.597,0.381
				c-0.173,0.163-0.314,0.359-0.424,0.59c-0.11,0.23-0.175,0.484-0.194,0.762L183.982,117.507L183.982,117.507z"/>
			<path style="fill:#FFFFFF;" d="M179.491,112.015h5.042v1.251h-5.042V112.015z"/>
		</g>
		<g>
			
				<radialGradient id="SVGID_00000018225758603669935580000008599301964375872432_" cx="183.2241" cy="168.1951" r="21" gradientUnits="userSpaceOnUse">
				<stop  offset="0" style="stop-color:#000056"/>
				<stop  offset="0.2482" style="stop-color:#4C4C88;stop-opacity:0.7518"/>
				<stop  offset="0.5193" style="stop-color:#9898BB;stop-opacity:0.4807"/>
				<stop  offset="0.744" style="stop-color:#D0D0E0;stop-opacity:0.256"/>
				<stop  offset="0.9103" style="stop-color:#F2F2F6;stop-opacity:0.0897"/>
				<stop  offset="1" style="stop-color:#FFFFFF;stop-opacity:0"/>
			</radialGradient>
			
				<circle style="opacity:0.8;fill:url(#SVGID_00000018225758603669935580000008599301964375872432_);" cx="183.224" cy="168.195" r="21"/>
			
				<linearGradient id="SVGID_00000033341388619213190660000002986293453714443656_" gradientUnits="userSpaceOnUse" x1="162.3731" y1="138.9531" x2="183.0511" y2="159.6311" gradientTransform="matrix(0.7071 0.7071 -0.7071 0.7071 160.2158 -68.4758)">
				<stop  offset="0" style="stop-color:#00D95F"/>
				<stop  offset="0.9956" style="stop-color:#199250"/>
				<stop  offset="1" style="stop-color:#199250"/>
			</linearGradient>
			<path style="fill:url(#SVGID_00000033341388619213190660000002986293453714443656_);" d="M162.155,166.185v-13.944
				c0-4.207,3.442-7.649,7.649-7.649h13.944c4.207,0,7.649,3.442,7.649,7.649l0,13.944c0,4.207-3.442,7.649-7.649,7.649l-13.944,0
				C165.597,173.835,162.155,170.393,162.155,166.185z"/>
			<path style="fill:#FFFFFF;" d="M182.412,165.057c-0.165,0.282-0.461,0.439-0.765,0.439c-0.152,0-0.305-0.039-0.446-0.121
				c-2.327-1.36-5.016-1.579-6.862-1.523c-2.045,0.062-3.544,0.466-3.559,0.47c-0.471,0.129-0.959-0.149-1.088-0.62
				c-0.129-0.471,0.147-0.958,0.618-1.088c0.068-0.019,1.681-0.457,3.925-0.531c1.322-0.044,2.594,0.048,3.782,0.274
				c1.504,0.285,2.875,0.786,4.077,1.488C182.517,164.093,182.659,164.635,182.412,165.057z"/>
			<path style="fill:#FFFFFF;" d="M184.058,161.638c-0.195,0.334-0.546,0.52-0.907,0.52c-0.18,0-0.362-0.046-0.528-0.143
				c-2.756-1.611-5.941-1.87-8.128-1.803c-2.422,0.074-4.199,0.552-4.216,0.557c-0.558,0.152-1.135-0.176-1.288-0.734
				c-0.153-0.558,0.174-1.135,0.732-1.289c0.08-0.022,1.992-0.541,4.65-0.629c1.566-0.052,3.073,0.057,4.479,0.324
				c1.781,0.338,3.406,0.931,4.83,1.763C184.182,160.496,184.351,161.138,184.058,161.638z"/>
			<path style="fill:#FFFFFF;" d="M185.07,158.529c-0.22,0-0.444-0.057-0.648-0.176c-6.553-3.83-15.054-1.553-15.139-1.53
				c-0.685,0.189-1.394-0.214-1.582-0.899c-0.189-0.685,0.214-1.393,0.899-1.582c0.098-0.027,2.443-0.664,5.703-0.771
				c1.921-0.063,3.769,0.07,5.494,0.398c2.185,0.414,4.178,1.142,5.924,2.162c0.613,0.359,0.82,1.146,0.462,1.76
				C185.943,158.301,185.513,158.529,185.07,158.529z"/>
		</g>
		<g>
			
				<radialGradient id="SVGID_00000044891377240619279720000012925656089521691823_" cx="140.74" cy="167.763" r="21" gradientUnits="userSpaceOnUse">
				<stop  offset="0" style="stop-color:#000056"/>
				<stop  offset="0.2482" style="stop-color:#4C4C88;stop-opacity:0.7518"/>
				<stop  offset="0.5193" style="stop-color:#9898BB;stop-opacity:0.4807"/>
				<stop  offset="0.744" style="stop-color:#D0D0E0;stop-opacity:0.256"/>
				<stop  offset="0.9103" style="stop-color:#F2F2F6;stop-opacity:0.0897"/>
				<stop  offset="1" style="stop-color:#FFFFFF;stop-opacity:0"/>
			</radialGradient>
			
				<circle style="opacity:0.8;fill:url(#SVGID_00000044891377240619279720000012925656089521691823_);" cx="140.74" cy="167.763" r="21"/>
			
				<linearGradient id="SVGID_00000157995186305123840140000013440792923749155514_" gradientUnits="userSpaceOnUse" x1="353.9768" y1="-116.7565" x2="378.7255" y2="-92.0078" gradientTransform="matrix(0 1 -1 0 29.9099 -207.1335)">
				<stop  offset="0" style="stop-color:#FC4D3F"/>
				<stop  offset="1" style="stop-color:#CD083F"/>
			</linearGradient>
			<path style="fill:url(#SVGID_00000157995186305123840140000013440792923749155514_);" d="M119.671,166.19v-13.944
				c0-4.207,3.442-7.649,7.649-7.649h13.944c4.207,0,7.649,3.442,7.649,7.649l0,13.944c0,4.207-3.442,7.649-7.649,7.649H127.32
				C123.113,173.839,119.671,170.397,119.671,166.19z"/>
			<path style="fill-rule:evenodd;clip-rule:evenodd;fill:#FFFFFF;" d="M133.167,162.398c-0.015,0.051-0.029,0.094-0.04,0.137
				c-0.652,2.554-0.724,3.121-1.394,4.307c-0.32,0.564-0.679,1.098-1.077,1.609c-0.045,0.058-0.087,0.132-0.177,0.114
				c-0.098-0.021-0.106-0.109-0.117-0.188c-0.107-0.776-0.166-1.554-0.141-2.337c0.034-1.021,0.16-1.371,1.476-6.903
				c0.019-0.084-0.002-0.155-0.031-0.231c-0.315-0.85-0.377-1.712-0.102-2.585c0.596-1.887,2.735-2.031,3.109-0.475
				c0.23,0.963-0.379,2.223-0.847,4.086c-0.387,1.537,1.421,2.63,2.968,1.508c1.426-1.034,1.979-3.514,1.874-5.271
				c-0.207-3.504-4.049-4.261-6.487-3.133c-2.794,1.292-3.43,4.756-2.168,6.339c0.16,0.201,0.283,0.324,0.23,0.529
				c-0.081,0.317-0.153,0.636-0.24,0.952c-0.065,0.234-0.262,0.32-0.499,0.224c-0.465-0.188-0.853-0.485-1.167-0.874
				c-1.072-1.327-1.378-3.951,0.039-6.173c1.57-2.462,4.489-3.457,7.154-3.155c3.183,0.362,5.196,2.537,5.573,5.005
				c0.172,1.124,0.048,3.896-1.53,5.855c-1.815,2.252-4.758,2.401-6.116,1.019C133.354,162.649,133.27,162.524,133.167,162.398z"/>
		</g>
	</g>
	<g>
		<g>
			
				<radialGradient id="SVGID_00000004532307008217458850000013682528273678570119_" cx="229.3433" cy="124.9823" r="21.5" gradientUnits="userSpaceOnUse">
				<stop  offset="0" style="stop-color:#000056"/>
				<stop  offset="0.2482" style="stop-color:#4C4C88;stop-opacity:0.7518"/>
				<stop  offset="0.5193" style="stop-color:#9898BB;stop-opacity:0.4807"/>
				<stop  offset="0.744" style="stop-color:#D0D0E0;stop-opacity:0.256"/>
				<stop  offset="0.9103" style="stop-color:#F2F2F6;stop-opacity:0.0897"/>
				<stop  offset="1" style="stop-color:#FFFFFF;stop-opacity:0"/>
			</radialGradient>
			
				<circle style="opacity:0.8;fill:url(#SVGID_00000004532307008217458850000013682528273678570119_);" cx="229.343" cy="124.982" r="21.5"/>
			<path d="M209.481,123.68l0-13.944c0-4.207,3.442-7.649,7.649-7.649h13.944c4.207,0,7.649,3.442,7.649,7.649v13.944
				c0,4.207-3.442,7.649-7.649,7.649h-13.944C212.924,131.329,209.481,127.887,209.481,123.68z"/>
			<path style="fill:#FFFFFF;" d="M215.16,121.432c0-0.093,0-0.187,0-0.28c0.115-0.133,0.236-0.247,0.423-0.284
				c1.472-0.292,2.456-1.23,3.199-2.462c0.624-1.036,0.524-1.272-0.627-1.68c-0.066-0.023-0.134-0.042-0.198-0.069
				c-0.249-0.102-0.495-0.211-0.7-0.39c-0.515-0.448-0.21-1.093,0.397-1.239c0.444-0.107,0.831,0.179,1.262,0.232
				c0.288,0.036,0.403-0.061,0.368-0.368c-0.091-0.79-0.089-1.585-0.052-2.378c0.071-1.513,0.815-2.665,2.075-3.412
				c1.84-1.091,3.764-1.104,5.618-0.017c1.157,0.679,1.904,1.706,2.066,3.084c0.105,0.896,0.064,1.794-0.007,2.692
				c-0.031,0.39,0.049,0.461,0.434,0.371c0.478-0.112,0.879-0.359,1.376-0.14c0.266,0.117,0.498,0.368,0.491,0.659
				c-0.005,0.199-0.121,0.382-0.271,0.513c-0.23,0.2-0.529,0.311-0.808,0.424c-0.216,0.088-0.441,0.156-0.651,0.254
				c-0.435,0.204-0.56,0.473-0.356,0.903c0.704,1.488,1.739,2.618,3.413,3.011c0.204,0.048,0.368,0.131,0.492,0.297
				c0,0.093,0,0.187,0,0.28c-0.159,0.326-0.442,0.506-0.764,0.628c-0.327,0.124-0.656,0.263-1.007,0.285
				c-0.485,0.031-0.74,0.243-0.814,0.748c-0.07,0.48-0.215,0.549-0.705,0.509c-0.116-0.009-0.231-0.031-0.346-0.051
				c-0.959-0.17-1.86-0.073-2.649,0.564c-0.154,0.124-0.325,0.228-0.491,0.336c-1.344,0.872-2.72,0.972-4.124,0.153
				c-0.383-0.223-0.745-0.48-1.117-0.723c-0.307-0.201-0.637-0.313-1.006-0.369c-0.582-0.088-1.139,0.042-1.706,0.105
				c-0.291,0.032-0.572-0.051-0.589-0.352c-0.04-0.725-0.484-0.903-1.094-0.97c-0.284-0.031-0.565-0.147-0.833-0.259
				C215.566,121.914,215.3,121.741,215.16,121.432z"/>
		</g>
		<g>
			
				<radialGradient id="SVGID_00000044172839003176374500000005134998246061282972_" cx="315.1066" cy="82.7696" r="21" gradientUnits="userSpaceOnUse">
				<stop  offset="0" style="stop-color:#000056"/>
				<stop  offset="0.2482" style="stop-color:#4C4C88;stop-opacity:0.7518"/>
				<stop  offset="0.5193" style="stop-color:#9898BB;stop-opacity:0.4807"/>
				<stop  offset="0.744" style="stop-color:#D0D0E0;stop-opacity:0.256"/>
				<stop  offset="0.9103" style="stop-color:#F2F2F6;stop-opacity:0.0897"/>
				<stop  offset="1" style="stop-color:#FFFFFF;stop-opacity:0"/>
			</radialGradient>
			
				<circle style="opacity:0.8;fill:url(#SVGID_00000044172839003176374500000005134998246061282972_);" cx="315.107" cy="82.77" r="21"/>
			<path d="M294.435,81.196V67.252c0-4.207,3.442-7.649,7.649-7.649h13.944c4.207,0,7.649,3.442,7.649,7.649v13.944
				c0,4.207-3.442,7.649-7.649,7.649h-13.944C297.877,88.845,294.435,85.403,294.435,81.196z"/>
			<path style="fill:#FFFFFF;" d="M317.135,69.214c-0.506,0.229-1.066,0.368-1.613,0.46c0.259-0.044,0.64-0.513,0.793-0.703
				c0.233-0.29,0.426-0.62,0.535-0.976c0.014-0.028,0.024-0.063-0.004-0.084c-0.035-0.014-0.058-0.007-0.085,0.007
				c-0.61,0.327-1.241,0.564-1.912,0.732c-0.056,0.014-0.097,0-0.132-0.035c-0.056-0.063-0.108-0.122-0.167-0.171
				c-0.282-0.24-0.585-0.428-0.926-0.567c-0.448-0.183-0.938-0.26-1.421-0.229c-0.47,0.031-0.931,0.163-1.348,0.381
				c-0.418,0.218-0.79,0.522-1.087,0.888c-0.307,0.379-0.533,0.826-0.649,1.301c-0.112,0.458-0.103,0.91-0.034,1.373
				c0.01,0.077,0.004,0.087-0.066,0.077c-2.626-0.391-4.803-1.331-6.57-3.344c-0.077-0.087-0.118-0.087-0.181,0.007
				c-0.773,1.159-0.398,3.021,0.568,3.937c0.129,0.122,0.261,0.244,0.404,0.355c-0.052,0.011-0.695-0.059-1.268-0.355
				c-0.077-0.049-0.115-0.021-0.122,0.066c-0.007,0.125,0.004,0.241,0.021,0.376c0.148,1.175,0.962,2.262,2.076,2.686
				c0.132,0.056,0.279,0.105,0.421,0.129c-0.254,0.056-0.515,0.095-1.243,0.038c-0.091-0.017-0.125,0.028-0.091,0.115
				c0.547,1.491,1.728,1.935,2.613,2.188c0.118,0.021,0.237,0.021,0.356,0.049c-0.007,0.011-0.014,0.011-0.021,0.021
				c-0.293,0.447-1.31,0.78-1.784,0.946c-0.861,0.301-1.799,0.437-2.71,0.347c-0.146-0.021-0.176-0.02-0.216,0
				c-0.04,0.025-0.005,0.06,0.042,0.097c0.185,0.122,0.373,0.23,0.564,0.335c0.578,0.307,1.181,0.551,1.811,0.725
				c3.255,0.899,6.922,0.238,9.366-2.19c1.919-1.907,2.592-4.537,2.592-7.17c0-0.103,0.122-0.16,0.194-0.214
				c0.499-0.375,0.902-0.824,1.275-1.326c0.084-0.113,0.084-0.213,0.084-0.254c0-0.007,0-0.014,0-0.014
				C317.2,69.172,317.199,69.185,317.135,69.214z"/>
		</g>
		<g>
			
				<radialGradient id="SVGID_00000137103283352098001440000006898851118847162809_" cx="315.1066" cy="124.9823" r="21" gradientUnits="userSpaceOnUse">
				<stop  offset="0" style="stop-color:#000056"/>
				<stop  offset="0.2482" style="stop-color:#4C4C88;stop-opacity:0.7518"/>
				<stop  offset="0.5193" style="stop-color:#9898BB;stop-opacity:0.4807"/>
				<stop  offset="0.744" style="stop-color:#D0D0E0;stop-opacity:0.256"/>
				<stop  offset="0.9103" style="stop-color:#F2F2F6;stop-opacity:0.0897"/>
				<stop  offset="1" style="stop-color:#FFFFFF;stop-opacity:0"/>
			</radialGradient>
			
				<circle style="opacity:0.8;fill:url(#SVGID_00000137103283352098001440000006898851118847162809_);" cx="315.107" cy="124.982" r="21"/>
			<path d="M294.435,123.68l0-13.944c0-4.207,3.442-7.649,7.649-7.649h13.944c4.207,0,7.649,3.442,7.649,7.649v13.944
				c0,4.207-3.442,7.649-7.649,7.649l-13.944,0C297.877,131.33,294.435,127.887,294.435,123.68z"/>
			<path style="fill:#FFFFFF;" d="M301.156,124.982l1.219-4.549c-0.69-1.245-1.053-2.641-1.053-4.057
				c0-4.631,3.768-8.398,8.398-8.398c4.631,0,8.398,3.768,8.398,8.398c0,4.631-3.768,8.398-8.398,8.398
				c-1.39,0-2.763-0.351-3.992-1.018L301.156,124.982z M305.956,122.053l0.288,0.172c1.057,0.63,2.259,0.963,3.477,0.963
				c3.756,0,6.811-3.055,6.811-6.811s-3.055-6.811-6.811-6.811c-3.755,0-6.811,3.055-6.811,6.811c0,1.24,0.344,2.461,0.996,3.531
				l0.177,0.29l-0.681,2.539L305.956,122.053z"/>
			<path style="fill-rule:evenodd;clip-rule:evenodd;fill:#FFFFFF;" d="M312.845,117.545c-0.346-0.207-0.796-0.438-1.203-0.271
				c-0.312,0.128-0.512,0.617-0.714,0.867c-0.104,0.128-0.228,0.148-0.387,0.084c-1.173-0.467-2.072-1.25-2.719-2.329
				c-0.11-0.168-0.09-0.3,0.042-0.455c0.196-0.23,0.441-0.492,0.494-0.802c0.053-0.31-0.093-0.673-0.221-0.949
				c-0.164-0.353-0.347-0.856-0.701-1.056c-0.325-0.184-0.753-0.081-1.043,0.155c-0.5,0.407-0.741,1.045-0.734,1.677
				c0.002,0.18,0.024,0.359,0.066,0.532c0.101,0.417,0.294,0.806,0.51,1.176c0.164,0.279,0.341,0.55,0.533,0.81
				c0.627,0.852,1.408,1.593,2.311,2.146c0.452,0.277,0.938,0.519,1.441,0.685c0.565,0.187,1.068,0.381,1.678,0.265
				c0.638-0.121,1.268-0.516,1.521-1.132c0.075-0.182,0.113-0.385,0.071-0.577C313.705,117.974,313.167,117.737,312.845,117.545z"/>
		</g>
		<g>
			
				<radialGradient id="SVGID_00000075164442703249661340000009793662317499461016_" cx="272.2249" cy="124.9823" r="21" gradientUnits="userSpaceOnUse">
				<stop  offset="0" style="stop-color:#000056"/>
				<stop  offset="0.2482" style="stop-color:#4C4C88;stop-opacity:0.7518"/>
				<stop  offset="0.5193" style="stop-color:#9898BB;stop-opacity:0.4807"/>
				<stop  offset="0.744" style="stop-color:#D0D0E0;stop-opacity:0.256"/>
				<stop  offset="0.9103" style="stop-color:#F2F2F6;stop-opacity:0.0897"/>
				<stop  offset="1" style="stop-color:#FFFFFF;stop-opacity:0"/>
			</radialGradient>
			
				<circle style="opacity:0.8;fill:url(#SVGID_00000075164442703249661340000009793662317499461016_);" cx="272.225" cy="124.982" r="21"/>
			<path d="M251.951,123.68v-13.944c0-4.207,3.442-7.649,7.649-7.649l13.944,0c4.207,0,7.649,3.442,7.649,7.649v13.944
				c0,4.207-3.442,7.649-7.649,7.649H259.6C255.393,131.329,251.951,127.887,251.951,123.68z"/>
			<path style="fill:#FFFFFF;" d="M274.4,114.582c0-1.939-1.572-3.511-3.511-3.511h-8.978c-1.939,0-3.511,1.572-3.511,3.511v4.178
				c0,1.939,1.572,3.511,3.511,3.511h8.978c1.939,0,3.511-1.572,3.511-3.511V114.582z M269.12,116.984l-4.026,1.992
				c-0.158,0.085-0.694-0.029-0.694-0.208v-4.089c0-0.182,0.541-0.296,0.699-0.206l3.854,2.097
				C269.114,116.662,269.284,116.896,269.12,116.984z"/>
		</g>
		<g>
			
				<radialGradient id="SVGID_00000163057260661722741030000017228649360635763623_" cx="272.2249" cy="82.7696" r="21" gradientUnits="userSpaceOnUse">
				<stop  offset="0" style="stop-color:#000056"/>
				<stop  offset="0.2482" style="stop-color:#4C4C88;stop-opacity:0.7518"/>
				<stop  offset="0.5193" style="stop-color:#9898BB;stop-opacity:0.4807"/>
				<stop  offset="0.744" style="stop-color:#D0D0E0;stop-opacity:0.256"/>
				<stop  offset="0.9103" style="stop-color:#F2F2F6;stop-opacity:0.0897"/>
				<stop  offset="1" style="stop-color:#FFFFFF;stop-opacity:0"/>
			</radialGradient>
			
				<circle style="opacity:0.8;fill:url(#SVGID_00000163057260661722741030000017228649360635763623_);" cx="272.225" cy="82.77" r="21"/>
			<path d="M251.951,81.196V67.252c0-4.207,3.442-7.649,7.649-7.649l13.944,0c4.207,0,7.649,3.442,7.649,7.649v13.944
				c0,4.207-3.442,7.649-7.649,7.649l-13.944,0C255.393,88.845,251.951,85.403,251.951,81.196z"/>
			<g>
				<path style="fill:#FFFFFF;" d="M271.111,68.713c-0.555,0-1.005,0.45-1.005,1.005c0,0.555,0.45,1.005,1.005,1.005
					c0.555,0,1.005-0.45,1.005-1.005C272.116,69.163,271.666,68.713,271.111,68.713z"/>
				<path style="fill:#FFFFFF;" d="M266.642,70.002c-2.328,0-4.222,1.894-4.222,4.222c0,2.328,1.894,4.222,4.222,4.222
					c2.328,0,4.222-1.894,4.222-4.222C270.864,71.896,268.97,70.002,266.642,70.002z M266.642,76.929
					c-1.491,0-2.704-1.213-2.704-2.704c0-1.491,1.213-2.704,2.704-2.704c1.491,0,2.704,1.213,2.704,2.704
					C269.347,75.715,268.134,76.929,266.642,76.929z"/>
				<path style="fill:#FFFFFF;" d="M269.994,82.796h-6.845c-2.839,0-5.149-2.31-5.149-5.149v-6.845c0-2.84,2.31-5.149,5.149-5.149
					h6.845c2.839,0,5.15,2.31,5.15,5.149v6.845C275.144,80.486,272.834,82.796,269.994,82.796z M263.15,67.265
					c-1.95,0-3.537,1.586-3.537,3.537v6.845c0,1.95,1.586,3.537,3.537,3.537h6.845c1.95,0,3.537-1.586,3.537-3.537v-6.845
					c0-1.95-1.587-3.537-3.537-3.537H263.15z"/>
			</g>
		</g>
		<g>
			
				<radialGradient id="SVGID_00000104693549562553841620000009824266165780855221_" cx="229.3433" cy="82.7696" r="21.5" gradientUnits="userSpaceOnUse">
				<stop  offset="0" style="stop-color:#000056"/>
				<stop  offset="0.2482" style="stop-color:#4C4C88;stop-opacity:0.7518"/>
				<stop  offset="0.5193" style="stop-color:#9898BB;stop-opacity:0.4807"/>
				<stop  offset="0.744" style="stop-color:#D0D0E0;stop-opacity:0.256"/>
				<stop  offset="0.9103" style="stop-color:#F2F2F6;stop-opacity:0.0897"/>
				<stop  offset="1" style="stop-color:#FFFFFF;stop-opacity:0"/>
			</radialGradient>
			
				<circle style="opacity:0.8;fill:url(#SVGID_00000104693549562553841620000009824266165780855221_);" cx="229.343" cy="82.77" r="21.5"/>
			<g>
				<path d="M209.452,81.196V67.252c0-4.207,3.442-7.649,7.649-7.649h13.944c4.207,0,7.649,3.442,7.649,7.649l0,13.944
					c0,4.207-3.442,7.649-7.649,7.649h-4.687l-2.455-0.598l-2.115,0.598l-4.687,0C212.894,88.845,209.452,85.403,209.452,81.196z"/>
				<g>
					<path style="fill:#FFFFFF;" d="M229.765,78.931l0.648-4.227h-4.055v-2.743c0-1.156,0.566-2.283,2.383-2.283h1.844V66.08
						c0,0-1.673-0.286-3.273-0.286c-3.34,0-5.523,2.024-5.523,5.689v3.221h-3.712v4.227h3.712v9.915h4.569v-9.915H229.765z"/>
				</g>
			</g>
		</g>
		<g>
			
				<radialGradient id="SVGID_00000020376555341245329140000016585889373614233742_" cx="229.3433" cy="168.1951" r="21.5" gradientUnits="userSpaceOnUse">
				<stop  offset="0" style="stop-color:#000056"/>
				<stop  offset="0.2482" style="stop-color:#4C4C88;stop-opacity:0.7518"/>
				<stop  offset="0.5193" style="stop-color:#9898BB;stop-opacity:0.4807"/>
				<stop  offset="0.744" style="stop-color:#D0D0E0;stop-opacity:0.256"/>
				<stop  offset="0.9103" style="stop-color:#F2F2F6;stop-opacity:0.0897"/>
				<stop  offset="1" style="stop-color:#FFFFFF;stop-opacity:0"/>
			</radialGradient>
			
				<circle style="opacity:0.8;fill:url(#SVGID_00000020376555341245329140000016585889373614233742_);" cx="229.343" cy="168.195" r="21.5"/>
			<path d="M209.481,166.185v-13.944c0-4.207,3.442-7.649,7.649-7.649h13.944c4.207,0,7.649,3.442,7.649,7.649l0,13.944
				c0,4.207-3.442,7.649-7.649,7.649l-13.944,0C212.924,173.835,209.481,170.393,209.481,166.185z"/>
			<path style="fill:#FFFFFF;" d="M217.971,156.49h2.832v9.097h-2.832V156.49z M219.387,151.97c0.906,0,1.639,0.735,1.639,1.638
				c0,0.905-0.734,1.641-1.639,1.641c-0.908,0-1.642-0.736-1.642-1.641C217.746,152.704,218.479,151.97,219.387,151.97"/>
			<path style="fill:#FFFFFF;" d="M222.577,156.49h2.712v1.244h0.037c0.378-0.716,1.3-1.469,2.678-1.469
				c2.863,0,3.391,1.883,3.391,4.333v4.989h-2.826v-4.423c0-1.056-0.021-2.412-1.47-2.412c-1.472,0-1.696,1.149-1.696,2.335v4.5
				h-2.826V156.49z"/>
		</g>
		<g>
			
				<radialGradient id="SVGID_00000142898792734129232720000006319771238355018922_" cx="272.2249" cy="168.1951" r="21" gradientUnits="userSpaceOnUse">
				<stop  offset="0" style="stop-color:#000056"/>
				<stop  offset="0.2482" style="stop-color:#4C4C88;stop-opacity:0.7518"/>
				<stop  offset="0.5193" style="stop-color:#9898BB;stop-opacity:0.4807"/>
				<stop  offset="0.744" style="stop-color:#D0D0E0;stop-opacity:0.256"/>
				<stop  offset="0.9103" style="stop-color:#F2F2F6;stop-opacity:0.0897"/>
				<stop  offset="1" style="stop-color:#FFFFFF;stop-opacity:0"/>
			</radialGradient>
			
				<circle style="opacity:0.8;fill:url(#SVGID_00000142898792734129232720000006319771238355018922_);" cx="272.225" cy="168.195" r="21"/>
			<path d="M251.951,166.185v-13.944c0-4.207,3.442-7.649,7.649-7.649l13.944,0c4.207,0,7.649,3.442,7.649,7.649v13.944
				c0,4.207-3.442,7.649-7.649,7.649l-13.944,0C255.393,173.835,251.951,170.393,251.951,166.185z"/>
			<path style="fill:#FFFFFF;" d="M266.4,150.999c-4.535,0-8.225,3.685-8.225,8.215c0,4.529,3.69,8.214,8.225,8.214
				c4.535,0,8.225-3.685,8.225-8.214C274.625,154.684,270.935,150.999,266.4,150.999L266.4,150.999z M271.812,154.876
				c0.938,1.163,1.508,2.631,1.535,4.231c-0.312-0.064-1.634-0.311-3.214-0.311c-0.51,0-1.046,0.026-1.584,0.092
				c-0.046-0.111-0.091-0.221-0.139-0.332c-0.139-0.328-0.29-0.654-0.445-0.974C270.396,156.581,271.569,155.191,271.812,154.876
				L271.812,154.876z M266.4,152.285c1.753,0,3.355,0.651,4.578,1.724c-0.194,0.264-1.244,1.577-3.589,2.463
				c-1.085-1.984-2.273-3.627-2.556-4.008C265.337,152.347,265.862,152.285,266.4,152.285L266.4,152.285z M263.415,152.958
				c0.24,0.33,1.429,1.99,2.543,3.958c-2.988,0.785-5.64,0.837-6.281,0.837h-0.068C260.069,155.633,261.501,153.872,263.415,152.958
				L263.415,152.958z M259.451,159.224c0-0.057,0.001-0.114,0.003-0.171c0.041,0.001,0.103,0.001,0.182,0.001
				c0.862,0,3.856-0.071,6.94-0.987c0.187,0.366,0.366,0.738,0.531,1.109c-0.078,0.022-0.155,0.045-0.231,0.07
				c-3.473,1.122-5.382,4.091-5.676,4.577C260.113,162.596,259.451,160.986,259.451,159.224L259.451,159.224z M266.4,166.163
				c-1.594,0-3.064-0.54-4.238-1.445c0.199-0.389,1.639-2.983,5.445-4.308c0.002-0.001,0.005-0.002,0.008-0.003
				c0.954,2.485,1.358,4.57,1.469,5.216C268.258,165.972,267.351,166.163,266.4,166.163L266.4,166.163z M270.336,164.94
				c-0.093-0.535-0.468-2.489-1.332-4.873c0.485-0.075,0.956-0.105,1.398-0.105c1.452,0,2.588,0.318,2.852,0.399
				C272.941,162.254,271.857,163.892,270.336,164.94L270.336,164.94z"/>
		</g>
		<g>
			
				<radialGradient id="SVGID_00000130634731885323022610000004739470083115670420_" cx="357.9882" cy="124.9823" r="21" gradientUnits="userSpaceOnUse">
				<stop  offset="0" style="stop-color:#000056"/>
				<stop  offset="0.2482" style="stop-color:#4C4C88;stop-opacity:0.7518"/>
				<stop  offset="0.5193" style="stop-color:#9898BB;stop-opacity:0.4807"/>
				<stop  offset="0.744" style="stop-color:#D0D0E0;stop-opacity:0.256"/>
				<stop  offset="0.9103" style="stop-color:#F2F2F6;stop-opacity:0.0897"/>
				<stop  offset="1" style="stop-color:#FFFFFF;stop-opacity:0"/>
			</radialGradient>
			
				<circle style="opacity:0.8;fill:url(#SVGID_00000130634731885323022610000004739470083115670420_);" cx="357.988" cy="124.982" r="21"/>
			<path d="M336.919,123.68l0-13.944c0-4.207,3.442-7.649,7.649-7.649h13.944c4.207,0,7.649,3.442,7.649,7.649v13.944
				c0,4.207-3.442,7.649-7.649,7.649h-13.944C340.361,131.329,336.919,127.887,336.919,123.68z"/>
			<path style="fill:#FFFFFF;" d="M352.354,119.335c0,0.445-0.089,0.836-0.267,1.172c-0.178,0.336-0.423,0.618-0.735,0.846
				c-0.312,0.228-0.673,0.401-1.083,0.519c-0.41,0.119-0.848,0.178-1.313,0.178h-5.09v-10.536h5.639
				c0.366,0,0.698,0.079,0.994,0.238c0.297,0.159,0.549,0.364,0.757,0.616c0.208,0.252,0.368,0.54,0.482,0.861
				c0.114,0.322,0.171,0.646,0.171,0.972c0,0.514-0.129,0.997-0.386,1.447c-0.257,0.45-0.633,0.784-1.128,1.002
				c0.603,0.178,1.081,0.497,1.432,0.957C352.178,118.066,352.354,118.643,352.354,119.335z M345.914,113.266v2.656h2.73
				c0.346,0,0.641-0.119,0.883-0.356c0.242-0.237,0.364-0.564,0.364-0.979c0-0.406-0.111-0.727-0.334-0.965
				c-0.222-0.237-0.497-0.356-0.823-0.356H345.914z M350.292,118.949c0-0.188-0.032-0.368-0.096-0.542
				c-0.064-0.173-0.151-0.324-0.26-0.453c-0.109-0.129-0.237-0.23-0.386-0.304c-0.148-0.074-0.312-0.111-0.49-0.111h-3.146v2.775
				h3.042c0.188,0,0.364-0.035,0.527-0.104c0.163-0.069,0.304-0.166,0.423-0.289c0.119-0.124,0.213-0.27,0.282-0.438
				C350.257,119.315,350.292,119.137,350.292,118.949z"/>
			<path style="fill:#FFFFFF;" d="M356.79,122.05c-0.604,0-1.15-0.103-1.639-0.309c-0.969-0.412-1.651-1.105-2.049-2.078
				c-0.187-0.47-0.28-0.963-0.28-1.481c0-0.537,0.091-1.042,0.273-1.517c0.39-0.985,1.073-1.687,2.049-2.107
				c0.494-0.211,1.047-0.316,1.661-0.316c0.613,0,1.162,0.106,1.646,0.316c1.591,0.694,2.341,2.236,2.272,3.911
				c-0.005,0.115-0.017,0.211-0.036,0.288h-5.824c0.029,0.297,0.101,0.561,0.216,0.791c0.115,0.23,0.263,0.427,0.446,0.59
				c0.182,0.163,0.388,0.288,0.618,0.374c0.23,0.086,0.469,0.13,0.719,0.13c0.383,0,0.745-0.094,1.085-0.281
				c0.34-0.187,0.573-0.433,0.697-0.74l1.653,0.46c-0.278,0.575-0.721,1.047-1.33,1.416
				C358.36,121.866,357.633,122.05,356.79,122.05z M358.746,117.507c-0.048-0.565-0.257-1.018-0.626-1.359
				c-0.369-0.34-0.817-0.51-1.344-0.51c-0.259,0-0.501,0.046-0.726,0.137c-0.225,0.091-0.424,0.218-0.597,0.381
				c-0.172,0.163-0.314,0.359-0.424,0.59c-0.11,0.23-0.175,0.484-0.194,0.762L358.746,117.507L358.746,117.507z"/>
			<path style="fill:#FFFFFF;" d="M354.255,112.015h5.042v1.251h-5.042V112.015z"/>
		</g>
		<g>
			
				<radialGradient id="SVGID_00000031208084787045567450000005341249475592052391_" cx="357.9882" cy="82.7696" r="21" gradientUnits="userSpaceOnUse">
				<stop  offset="0" style="stop-color:#000056"/>
				<stop  offset="0.2482" style="stop-color:#4C4C88;stop-opacity:0.7518"/>
				<stop  offset="0.5193" style="stop-color:#9898BB;stop-opacity:0.4807"/>
				<stop  offset="0.744" style="stop-color:#D0D0E0;stop-opacity:0.256"/>
				<stop  offset="0.9103" style="stop-color:#F2F2F6;stop-opacity:0.0897"/>
				<stop  offset="1" style="stop-color:#FFFFFF;stop-opacity:0"/>
			</radialGradient>
			
				<circle style="opacity:0.8;fill:url(#SVGID_00000031208084787045567450000005341249475592052391_);" cx="357.988" cy="82.77" r="21"/>
			<path d="M336.919,81.196V67.252c0-4.207,3.442-7.649,7.649-7.649h13.944c4.207,0,7.649,3.442,7.649,7.649l0,13.944
				c0,4.207-3.442,7.649-7.649,7.649l-13.944,0C340.361,88.845,336.919,85.403,336.919,81.196z"/>
			<path style="fill:#FFFFFF;" d="M359.12,72.539c-0.149,0.015-0.3,0.022-0.45,0.023c-1.648,0-3.185-0.831-4.088-2.209v7.523
				c0,3.071-2.49,5.561-5.561,5.561c-3.071,0-5.561-2.489-5.561-5.561c0-3.071,2.49-5.561,5.561-5.561l0,0
				c0.116,0,0.23,0.01,0.344,0.018v2.74c-0.114-0.014-0.226-0.035-0.344-0.035c-1.567,0-2.838,1.271-2.838,2.838
				s1.271,2.838,2.838,2.838c1.568,0,2.952-1.235,2.952-2.803l0.027-12.778h2.621c0.247,2.351,2.143,4.187,4.5,4.359v3.045"/>
		</g>
		<g>
			
				<radialGradient id="SVGID_00000151543464268062869930000002396863847579586218_" cx="357.9882" cy="168.1951" r="21" gradientUnits="userSpaceOnUse">
				<stop  offset="0" style="stop-color:#000056"/>
				<stop  offset="0.2482" style="stop-color:#4C4C88;stop-opacity:0.7518"/>
				<stop  offset="0.5193" style="stop-color:#9898BB;stop-opacity:0.4807"/>
				<stop  offset="0.744" style="stop-color:#D0D0E0;stop-opacity:0.256"/>
				<stop  offset="0.9103" style="stop-color:#F2F2F6;stop-opacity:0.0897"/>
				<stop  offset="1" style="stop-color:#FFFFFF;stop-opacity:0"/>
			</radialGradient>
			
				<circle style="opacity:0.8;fill:url(#SVGID_00000151543464268062869930000002396863847579586218_);" cx="357.988" cy="168.195" r="21"/>
			<path d="M336.919,166.185v-13.944c0-4.207,3.442-7.649,7.649-7.649h13.944c4.207,0,7.649,3.442,7.649,7.649l0,13.944
				c0,4.207-3.442,7.649-7.649,7.649l-13.944,0C340.361,173.835,336.919,170.393,336.919,166.185z"/>
			<path style="fill:#FFFFFF;" d="M357.176,165.057c-0.165,0.282-0.461,0.439-0.765,0.439c-0.152,0-0.305-0.039-0.446-0.121
				c-2.327-1.36-5.016-1.579-6.862-1.523c-2.045,0.062-3.544,0.466-3.559,0.47c-0.471,0.129-0.958-0.149-1.088-0.62
				c-0.129-0.471,0.147-0.958,0.618-1.088c0.068-0.019,1.681-0.457,3.925-0.531c1.322-0.044,2.594,0.048,3.781,0.274
				c1.504,0.285,2.876,0.786,4.077,1.488C357.281,164.093,357.423,164.635,357.176,165.057z"/>
			<path style="fill:#FFFFFF;" d="M358.823,161.638c-0.195,0.334-0.546,0.52-0.907,0.52c-0.18,0-0.362-0.046-0.528-0.143
				c-2.757-1.611-5.941-1.87-8.128-1.803c-2.422,0.074-4.199,0.552-4.216,0.557c-0.558,0.152-1.135-0.176-1.289-0.734
				c-0.153-0.558,0.174-1.135,0.732-1.289c0.08-0.022,1.992-0.541,4.65-0.629c1.566-0.052,3.073,0.057,4.479,0.324
				c1.781,0.338,3.406,0.931,4.83,1.763C358.947,160.496,359.115,161.138,358.823,161.638z"/>
			<path style="fill:#FFFFFF;" d="M359.835,158.529c-0.22,0-0.444-0.057-0.648-0.176c-6.553-3.83-15.054-1.553-15.14-1.53
				c-0.685,0.189-1.393-0.214-1.582-0.899c-0.189-0.685,0.214-1.393,0.899-1.582c0.098-0.027,2.443-0.664,5.703-0.771
				c1.921-0.063,3.769,0.07,5.494,0.398c2.185,0.414,4.178,1.142,5.924,2.162c0.613,0.359,0.82,1.146,0.462,1.76
				C360.707,158.301,360.277,158.529,359.835,158.529z"/>
		</g>
		<g>
			
				<radialGradient id="SVGID_00000149374836417406490290000004522960439107272632_" cx="315.5042" cy="167.7585" r="21" gradientUnits="userSpaceOnUse">
				<stop  offset="0" style="stop-color:#000056"/>
				<stop  offset="0.2482" style="stop-color:#4C4C88;stop-opacity:0.7518"/>
				<stop  offset="0.5193" style="stop-color:#9898BB;stop-opacity:0.4807"/>
				<stop  offset="0.744" style="stop-color:#D0D0E0;stop-opacity:0.256"/>
				<stop  offset="0.9103" style="stop-color:#F2F2F6;stop-opacity:0.0897"/>
				<stop  offset="1" style="stop-color:#FFFFFF;stop-opacity:0"/>
			</radialGradient>
			
				<circle style="opacity:0.8;fill:url(#SVGID_00000149374836417406490290000004522960439107272632_);" cx="315.504" cy="167.758" r="21"/>
			<path d="M294.435,166.185v-13.944c0-4.207,3.442-7.649,7.649-7.649h13.944c4.207,0,7.649,3.442,7.649,7.649l0,13.944
				c0,4.207-3.442,7.649-7.649,7.649h-13.944C297.877,173.835,294.435,170.392,294.435,166.185z"/>
			<path style="fill-rule:evenodd;clip-rule:evenodd;fill:#FFFFFF;" d="M307.932,162.393c-0.015,0.051-0.029,0.094-0.04,0.137
				c-0.652,2.554-0.724,3.121-1.394,4.307c-0.319,0.564-0.679,1.098-1.077,1.609c-0.045,0.058-0.087,0.132-0.177,0.114
				c-0.098-0.021-0.106-0.109-0.116-0.188c-0.107-0.776-0.166-1.554-0.141-2.337c0.034-1.021,0.16-1.371,1.476-6.903
				c0.019-0.084-0.002-0.155-0.031-0.231c-0.315-0.85-0.377-1.712-0.102-2.585c0.595-1.887,2.735-2.031,3.109-0.475
				c0.23,0.963-0.379,2.223-0.847,4.086c-0.388,1.537,1.421,2.63,2.968,1.508c1.426-1.034,1.979-3.514,1.874-5.271
				c-0.207-3.504-4.049-4.261-6.487-3.133c-2.794,1.292-3.43,4.756-2.168,6.339c0.16,0.202,0.283,0.324,0.23,0.529
				c-0.081,0.317-0.153,0.636-0.24,0.952c-0.065,0.235-0.262,0.32-0.499,0.224c-0.465-0.188-0.853-0.485-1.167-0.874
				c-1.072-1.327-1.378-3.951,0.039-6.173c1.569-2.461,4.489-3.457,7.155-3.155c3.183,0.362,5.196,2.537,5.573,5.005
				c0.172,1.124,0.048,3.896-1.53,5.855c-1.815,2.252-4.758,2.401-6.116,1.019C308.118,162.644,308.034,162.52,307.932,162.393z"/>
		</g>
	</g>
</g>
</svg>
